<mxfile host="app.diagrams.net" modified="2024-02-17T19:10:12.287Z" agent="Mozilla/5.0 (Windows NT 10.0; Win64; x64) AppleWebKit/537.36 (KHTML, like Gecko) Chrome/121.0.0.0 Safari/537.36" etag="FqhWkk8_RPtrCPFkpfca" scale="1" border="0" version="23.1.5" type="device">
  <diagram id="C5RBs43oDa-KdzZeNtuy" name="Page-1">
    <mxGraphModel dx="2049" dy="1054" grid="1" gridSize="10" guides="1" tooltips="1" connect="1" arrows="1" fold="1" page="1" pageScale="1" pageWidth="827" pageHeight="1169" math="0" shadow="0">
      <root>
        <mxCell id="WIyWlLk6GJQsqaUBKTNV-0" />
        <mxCell id="WIyWlLk6GJQsqaUBKTNV-1" parent="WIyWlLk6GJQsqaUBKTNV-0" />
        <mxCell id="_BHGbHKsS6Eedb4s3Qyd-1" value="Start/Previous Step" style="strokeWidth=2;html=1;shape=mxgraph.flowchart.terminator;whiteSpace=wrap;spacing=20;spacingTop=5;spacingBottom=5;spacingLeft=5;spacingRight=5;fontSize=14;" parent="WIyWlLk6GJQsqaUBKTNV-1" vertex="1">
          <mxGeometry x="56" y="150" width="174" height="50" as="geometry" />
        </mxCell>
        <mxCell id="_BHGbHKsS6Eedb4s3Qyd-2" value="" style="endArrow=classic;html=1;rounded=0;exitX=0.5;exitY=1;exitDx=0;exitDy=0;exitPerimeter=0;entryX=0.5;entryY=0;entryDx=0;entryDy=0;fontSize=14;" parent="WIyWlLk6GJQsqaUBKTNV-1" source="_BHGbHKsS6Eedb4s3Qyd-1" target="_BHGbHKsS6Eedb4s3Qyd-44" edge="1">
          <mxGeometry width="50" height="50" relative="1" as="geometry">
            <mxPoint x="119" y="324" as="sourcePoint" />
            <mxPoint x="143" y="254" as="targetPoint" />
          </mxGeometry>
        </mxCell>
        <mxCell id="_BHGbHKsS6Eedb4s3Qyd-56" style="edgeStyle=orthogonalEdgeStyle;rounded=0;orthogonalLoop=1;jettySize=auto;html=1;entryX=0.5;entryY=0;entryDx=0;entryDy=0;fontSize=14;" parent="WIyWlLk6GJQsqaUBKTNV-1" source="_BHGbHKsS6Eedb4s3Qyd-13" target="pIcZ7qprmyn_puhjhb8P-8" edge="1">
          <mxGeometry relative="1" as="geometry">
            <mxPoint x="143" y="520" as="targetPoint" />
          </mxGeometry>
        </mxCell>
        <mxCell id="_BHGbHKsS6Eedb4s3Qyd-57" value="Yes" style="edgeLabel;html=1;align=center;verticalAlign=middle;resizable=0;points=[];fontSize=14;" parent="_BHGbHKsS6Eedb4s3Qyd-56" vertex="1" connectable="0">
          <mxGeometry x="-0.3766" y="-2" relative="1" as="geometry">
            <mxPoint x="2" y="4" as="offset" />
          </mxGeometry>
        </mxCell>
        <mxCell id="pIcZ7qprmyn_puhjhb8P-2" value="" style="edgeStyle=orthogonalEdgeStyle;rounded=0;orthogonalLoop=1;jettySize=auto;html=1;fontSize=14;" edge="1" parent="WIyWlLk6GJQsqaUBKTNV-1" source="_BHGbHKsS6Eedb4s3Qyd-13" target="pIcZ7qprmyn_puhjhb8P-1">
          <mxGeometry relative="1" as="geometry" />
        </mxCell>
        <mxCell id="pIcZ7qprmyn_puhjhb8P-3" value="No" style="edgeLabel;html=1;align=center;verticalAlign=middle;resizable=0;points=[];fontSize=14;" vertex="1" connectable="0" parent="pIcZ7qprmyn_puhjhb8P-2">
          <mxGeometry x="-0.0426" y="1" relative="1" as="geometry">
            <mxPoint as="offset" />
          </mxGeometry>
        </mxCell>
        <mxCell id="_BHGbHKsS6Eedb4s3Qyd-13" value="&lt;p style=&quot;line-height: 120%; font-size: 14px;&quot;&gt;Does the customer want Matinée Standard parking?&lt;/p&gt;" style="rhombus;whiteSpace=wrap;html=1;strokeWidth=2;rounded=1;arcSize=12;verticalAlign=middle;horizontal=1;spacing=21;spacingBottom=5;spacingTop=5;spacingLeft=5;spacingRight=5;fontSize=14;" parent="WIyWlLk6GJQsqaUBKTNV-1" vertex="1">
          <mxGeometry x="73" y="340" width="140" height="140" as="geometry" />
        </mxCell>
        <mxCell id="_BHGbHKsS6Eedb4s3Qyd-52" style="edgeStyle=orthogonalEdgeStyle;rounded=0;orthogonalLoop=1;jettySize=auto;html=1;entryX=0.5;entryY=-0.047;entryDx=0;entryDy=0;entryPerimeter=0;fontSize=14;" parent="WIyWlLk6GJQsqaUBKTNV-1" source="_BHGbHKsS6Eedb4s3Qyd-38" target="_BHGbHKsS6Eedb4s3Qyd-53" edge="1">
          <mxGeometry relative="1" as="geometry">
            <mxPoint x="414.67" y="1179.9999999999998" as="targetPoint" />
          </mxGeometry>
        </mxCell>
        <mxCell id="_BHGbHKsS6Eedb4s3Qyd-38" value="Output “valetCosts”" style="shape=parallelogram;html=1;strokeWidth=2;perimeter=parallelogramPerimeter;whiteSpace=wrap;rounded=1;arcSize=12;size=0.23;spacing=20;spacingTop=20;spacingBottom=20;spacingLeft=30;spacingRight=30;fontSize=14;" parent="WIyWlLk6GJQsqaUBKTNV-1" vertex="1">
          <mxGeometry x="338" y="1020" width="172" height="60" as="geometry" />
        </mxCell>
        <mxCell id="pIcZ7qprmyn_puhjhb8P-0" value="" style="edgeStyle=orthogonalEdgeStyle;rounded=0;orthogonalLoop=1;jettySize=auto;html=1;fontSize=14;" edge="1" parent="WIyWlLk6GJQsqaUBKTNV-1" source="_BHGbHKsS6Eedb4s3Qyd-44" target="_BHGbHKsS6Eedb4s3Qyd-13">
          <mxGeometry relative="1" as="geometry" />
        </mxCell>
        <mxCell id="_BHGbHKsS6Eedb4s3Qyd-44" value="&lt;div style=&quot;font-size: 14px;&quot;&gt;Create a variable &quot;valetCosts: [Charge]&quot;&lt;/div&gt;" style="shape=parallelogram;html=1;strokeWidth=2;perimeter=parallelogramPerimeter;whiteSpace=wrap;rounded=1;arcSize=12;size=0.23;spacing=20;spacingTop=20;spacingBottom=20;spacingLeft=20;spacingRight=20;fontSize=14;" parent="WIyWlLk6GJQsqaUBKTNV-1" vertex="1">
          <mxGeometry x="46" y="230" width="194" height="80" as="geometry" />
        </mxCell>
        <mxCell id="_BHGbHKsS6Eedb4s3Qyd-53" value="End/Next Step" style="strokeWidth=2;html=1;shape=mxgraph.flowchart.terminator;whiteSpace=wrap;spacing=20;spacingTop=5;spacingBottom=5;spacingLeft=5;spacingRight=5;fontSize=14;" parent="WIyWlLk6GJQsqaUBKTNV-1" vertex="1">
          <mxGeometry x="340.00000000000006" y="1110" width="168" height="50" as="geometry" />
        </mxCell>
        <mxCell id="ZLTeGnqoFGhZjWjbSRd9-33" style="edgeStyle=orthogonalEdgeStyle;rounded=0;orthogonalLoop=1;jettySize=auto;html=1;entryX=0.5;entryY=0;entryDx=0;entryDy=0;fontSize=14;" parent="WIyWlLk6GJQsqaUBKTNV-1" source="_BHGbHKsS6Eedb4s3Qyd-78" target="_BHGbHKsS6Eedb4s3Qyd-38" edge="1">
          <mxGeometry relative="1" as="geometry">
            <Array as="points">
              <mxPoint x="571" y="760" />
              <mxPoint x="571" y="990" />
              <mxPoint x="424" y="990" />
            </Array>
          </mxGeometry>
        </mxCell>
        <mxCell id="ZLTeGnqoFGhZjWjbSRd9-34" value="No" style="edgeLabel;html=1;align=center;verticalAlign=middle;resizable=0;points=[];fontSize=14;" parent="ZLTeGnqoFGhZjWjbSRd9-33" vertex="1" connectable="0">
          <mxGeometry x="-0.88" y="-1" relative="1" as="geometry">
            <mxPoint x="-9" y="-1" as="offset" />
          </mxGeometry>
        </mxCell>
        <mxCell id="pIcZ7qprmyn_puhjhb8P-33" value="" style="edgeStyle=orthogonalEdgeStyle;rounded=0;orthogonalLoop=1;jettySize=auto;html=1;fontSize=14;" edge="1" parent="WIyWlLk6GJQsqaUBKTNV-1" source="_BHGbHKsS6Eedb4s3Qyd-78" target="ZLTeGnqoFGhZjWjbSRd9-31">
          <mxGeometry relative="1" as="geometry" />
        </mxCell>
        <mxCell id="pIcZ7qprmyn_puhjhb8P-34" value="Yes" style="edgeLabel;html=1;align=center;verticalAlign=middle;resizable=0;points=[];fontSize=14;" vertex="1" connectable="0" parent="pIcZ7qprmyn_puhjhb8P-33">
          <mxGeometry x="-0.1286" y="-1" relative="1" as="geometry">
            <mxPoint as="offset" />
          </mxGeometry>
        </mxCell>
        <mxCell id="_BHGbHKsS6Eedb4s3Qyd-78" value="&lt;p style=&quot;line-height: 120%; font-size: 14px;&quot;&gt;Does the customer want to leave a tip?&lt;/p&gt;" style="rhombus;whiteSpace=wrap;html=1;strokeWidth=2;rounded=1;arcSize=12;verticalAlign=middle;horizontal=1;spacing=21;spacingBottom=5;spacingTop=5;spacingLeft=5;spacingRight=5;fontSize=14;" parent="WIyWlLk6GJQsqaUBKTNV-1" vertex="1">
          <mxGeometry x="354" y="690" width="140" height="140" as="geometry" />
        </mxCell>
        <mxCell id="ZLTeGnqoFGhZjWjbSRd9-32" value="" style="edgeStyle=orthogonalEdgeStyle;rounded=0;orthogonalLoop=1;jettySize=auto;html=1;fontSize=14;" parent="WIyWlLk6GJQsqaUBKTNV-1" source="ZLTeGnqoFGhZjWjbSRd9-31" target="_BHGbHKsS6Eedb4s3Qyd-38" edge="1">
          <mxGeometry relative="1" as="geometry" />
        </mxCell>
        <mxCell id="ZLTeGnqoFGhZjWjbSRd9-31" value="Create a new Charge, set name to “Valet Parking Tip” , amount to user input and add to &quot;valetCosts&quot;" style="shape=parallelogram;html=1;strokeWidth=2;perimeter=parallelogramPerimeter;whiteSpace=wrap;rounded=1;arcSize=12;size=0;spacing=12;spacingLeft=0;spacingRight=0;fontSize=14;" parent="WIyWlLk6GJQsqaUBKTNV-1" vertex="1">
          <mxGeometry x="340" y="870" width="168" height="90" as="geometry" />
        </mxCell>
        <mxCell id="pIcZ7qprmyn_puhjhb8P-5" value="" style="edgeStyle=orthogonalEdgeStyle;rounded=0;orthogonalLoop=1;jettySize=auto;html=1;fontSize=14;" edge="1" parent="WIyWlLk6GJQsqaUBKTNV-1" source="pIcZ7qprmyn_puhjhb8P-1" target="pIcZ7qprmyn_puhjhb8P-4">
          <mxGeometry relative="1" as="geometry" />
        </mxCell>
        <mxCell id="pIcZ7qprmyn_puhjhb8P-7" value="No" style="edgeLabel;html=1;align=center;verticalAlign=middle;resizable=0;points=[];fontSize=14;" vertex="1" connectable="0" parent="pIcZ7qprmyn_puhjhb8P-5">
          <mxGeometry x="-0.1467" y="1" relative="1" as="geometry">
            <mxPoint as="offset" />
          </mxGeometry>
        </mxCell>
        <mxCell id="pIcZ7qprmyn_puhjhb8P-16" value="" style="edgeStyle=orthogonalEdgeStyle;rounded=0;orthogonalLoop=1;jettySize=auto;html=1;fontSize=14;" edge="1" parent="WIyWlLk6GJQsqaUBKTNV-1" source="pIcZ7qprmyn_puhjhb8P-1" target="pIcZ7qprmyn_puhjhb8P-12">
          <mxGeometry relative="1" as="geometry" />
        </mxCell>
        <mxCell id="pIcZ7qprmyn_puhjhb8P-22" value="Yes" style="edgeLabel;html=1;align=center;verticalAlign=middle;resizable=0;points=[];fontSize=14;" vertex="1" connectable="0" parent="pIcZ7qprmyn_puhjhb8P-16">
          <mxGeometry x="-0.0714" y="-2" relative="1" as="geometry">
            <mxPoint x="2" as="offset" />
          </mxGeometry>
        </mxCell>
        <mxCell id="pIcZ7qprmyn_puhjhb8P-1" value="&lt;p style=&quot;line-height: 120%; font-size: 14px;&quot;&gt;Does the customer want Matinée VIP parking?&lt;/p&gt;" style="rhombus;whiteSpace=wrap;html=1;strokeWidth=2;rounded=1;arcSize=12;verticalAlign=middle;horizontal=1;spacing=21;spacingBottom=5;spacingTop=5;spacingLeft=5;spacingRight=5;fontSize=14;" vertex="1" parent="WIyWlLk6GJQsqaUBKTNV-1">
          <mxGeometry x="260" y="340" width="140" height="140" as="geometry" />
        </mxCell>
        <mxCell id="pIcZ7qprmyn_puhjhb8P-17" value="" style="edgeStyle=orthogonalEdgeStyle;rounded=0;orthogonalLoop=1;jettySize=auto;html=1;fontSize=14;" edge="1" parent="WIyWlLk6GJQsqaUBKTNV-1" source="pIcZ7qprmyn_puhjhb8P-4" target="pIcZ7qprmyn_puhjhb8P-15">
          <mxGeometry relative="1" as="geometry" />
        </mxCell>
        <mxCell id="pIcZ7qprmyn_puhjhb8P-23" value="Yes" style="edgeLabel;html=1;align=center;verticalAlign=middle;resizable=0;points=[];fontSize=14;" vertex="1" connectable="0" parent="pIcZ7qprmyn_puhjhb8P-17">
          <mxGeometry x="-0.0714" y="-1" relative="1" as="geometry">
            <mxPoint x="1" as="offset" />
          </mxGeometry>
        </mxCell>
        <mxCell id="pIcZ7qprmyn_puhjhb8P-25" style="edgeStyle=orthogonalEdgeStyle;rounded=0;orthogonalLoop=1;jettySize=auto;html=1;entryX=0.5;entryY=0;entryDx=0;entryDy=0;fontSize=14;" edge="1" parent="WIyWlLk6GJQsqaUBKTNV-1" source="pIcZ7qprmyn_puhjhb8P-4" target="pIcZ7qprmyn_puhjhb8P-24">
          <mxGeometry relative="1" as="geometry" />
        </mxCell>
        <mxCell id="pIcZ7qprmyn_puhjhb8P-26" value="No" style="edgeLabel;html=1;align=center;verticalAlign=middle;resizable=0;points=[];fontSize=14;" vertex="1" connectable="0" parent="pIcZ7qprmyn_puhjhb8P-25">
          <mxGeometry x="-0.746" y="-1" relative="1" as="geometry">
            <mxPoint x="-9" y="-1" as="offset" />
          </mxGeometry>
        </mxCell>
        <mxCell id="pIcZ7qprmyn_puhjhb8P-4" value="&lt;p style=&quot;line-height: 120%; font-size: 14px;&quot;&gt;Does the customer want Evening Standard parking?&lt;/p&gt;" style="rhombus;whiteSpace=wrap;html=1;strokeWidth=2;rounded=1;arcSize=12;verticalAlign=middle;horizontal=1;spacing=21;spacingBottom=5;spacingTop=5;spacingLeft=5;spacingRight=5;fontSize=14;" vertex="1" parent="WIyWlLk6GJQsqaUBKTNV-1">
          <mxGeometry x="450" y="340" width="140" height="140" as="geometry" />
        </mxCell>
        <mxCell id="pIcZ7qprmyn_puhjhb8P-27" style="edgeStyle=orthogonalEdgeStyle;rounded=0;orthogonalLoop=1;jettySize=auto;html=1;entryX=0.5;entryY=0;entryDx=0;entryDy=0;fontSize=14;" edge="1" parent="WIyWlLk6GJQsqaUBKTNV-1" source="pIcZ7qprmyn_puhjhb8P-8" target="_BHGbHKsS6Eedb4s3Qyd-78">
          <mxGeometry relative="1" as="geometry">
            <Array as="points">
              <mxPoint x="143" y="660" />
              <mxPoint x="424" y="660" />
            </Array>
          </mxGeometry>
        </mxCell>
        <mxCell id="pIcZ7qprmyn_puhjhb8P-8" value="Create a new Charge, set name to “Matinée Standard”, amount to 10, and add to “valetCosts”" style="shape=parallelogram;html=1;strokeWidth=2;perimeter=parallelogramPerimeter;whiteSpace=wrap;rounded=1;arcSize=12;size=0;spacing=12;spacingLeft=0;spacingRight=0;fontSize=14;" vertex="1" parent="WIyWlLk6GJQsqaUBKTNV-1">
          <mxGeometry x="66" y="520" width="154" height="110" as="geometry" />
        </mxCell>
        <mxCell id="pIcZ7qprmyn_puhjhb8P-28" style="edgeStyle=orthogonalEdgeStyle;rounded=0;orthogonalLoop=1;jettySize=auto;html=1;entryX=0.5;entryY=0;entryDx=0;entryDy=0;fontSize=14;" edge="1" parent="WIyWlLk6GJQsqaUBKTNV-1" source="pIcZ7qprmyn_puhjhb8P-12" target="_BHGbHKsS6Eedb4s3Qyd-78">
          <mxGeometry relative="1" as="geometry" />
        </mxCell>
        <mxCell id="pIcZ7qprmyn_puhjhb8P-12" value="Create a new Charge, set name to “Matinée VIP”, amount to 15, and add to &quot;valetCosts&quot;" style="shape=parallelogram;html=1;strokeWidth=2;perimeter=parallelogramPerimeter;whiteSpace=wrap;rounded=1;arcSize=12;size=0;spacing=12;spacingLeft=0;spacingRight=0;fontSize=14;" vertex="1" parent="WIyWlLk6GJQsqaUBKTNV-1">
          <mxGeometry x="253" y="520" width="154" height="110" as="geometry" />
        </mxCell>
        <mxCell id="pIcZ7qprmyn_puhjhb8P-29" style="edgeStyle=orthogonalEdgeStyle;rounded=0;orthogonalLoop=1;jettySize=auto;html=1;entryX=0.5;entryY=0;entryDx=0;entryDy=0;fontSize=14;" edge="1" parent="WIyWlLk6GJQsqaUBKTNV-1" source="pIcZ7qprmyn_puhjhb8P-15" target="_BHGbHKsS6Eedb4s3Qyd-78">
          <mxGeometry relative="1" as="geometry" />
        </mxCell>
        <mxCell id="pIcZ7qprmyn_puhjhb8P-15" value="Create a new Charge, set name to “Evening Standard”, amount to 20, and add to &quot;valetCosts&quot;" style="shape=parallelogram;html=1;strokeWidth=2;perimeter=parallelogramPerimeter;whiteSpace=wrap;rounded=1;arcSize=12;size=0;spacing=12;spacingLeft=0;spacingRight=0;fontSize=14;" vertex="1" parent="WIyWlLk6GJQsqaUBKTNV-1">
          <mxGeometry x="443" y="520" width="154" height="110" as="geometry" />
        </mxCell>
        <mxCell id="pIcZ7qprmyn_puhjhb8P-30" style="edgeStyle=orthogonalEdgeStyle;rounded=0;orthogonalLoop=1;jettySize=auto;html=1;entryX=0.5;entryY=0;entryDx=0;entryDy=0;fontSize=14;" edge="1" parent="WIyWlLk6GJQsqaUBKTNV-1" source="pIcZ7qprmyn_puhjhb8P-24" target="_BHGbHKsS6Eedb4s3Qyd-78">
          <mxGeometry relative="1" as="geometry">
            <Array as="points">
              <mxPoint x="707" y="660" />
              <mxPoint x="424" y="660" />
            </Array>
          </mxGeometry>
        </mxCell>
        <mxCell id="pIcZ7qprmyn_puhjhb8P-24" value="Create a new Charge, set name to “Evening VIP”, amount to 30, and add to &quot;valetCosts&quot;" style="shape=parallelogram;html=1;strokeWidth=2;perimeter=parallelogramPerimeter;whiteSpace=wrap;rounded=1;arcSize=12;size=0;spacing=12;spacingLeft=0;spacingRight=0;fontSize=14;" vertex="1" parent="WIyWlLk6GJQsqaUBKTNV-1">
          <mxGeometry x="630" y="520" width="154" height="110" as="geometry" />
        </mxCell>
      </root>
    </mxGraphModel>
  </diagram>
</mxfile>
